 
<svg xmlns="http://www.w3.org/2000/svg" xml:space="preserve" width="1200px" height="1100px" version="1.1" style="shape-rendering:geometricPrecision; text-rendering:geometricPrecision; image-rendering:optimizeQuality; fill-rule:evenodd; clip-rule:evenodd"
viewBox="0 0 1200 1100"
 xmlns:xlink="http://www.w3.org/1999/xlink"
 xmlns:xodm="http://www.corel.com/coreldraw/odm/2003">
 <defs>
  <style type="text/css">
   <![CDATA[
    .fil0 {fill:lightseagreen;fill-rule:nonzero}
    .fil1 {fill:white;fill-rule:nonzero}
   ]]>
  </style>
 </defs>
 <g id="Слой_x0020_1">
  <metadata id="CorelCorpID_0Corel-Layer"/>
  <g id="_1877250679312">
   <polygon class="fil0" points="322.874,571.118 322.874,511.354 330.804,511.354 330.804,540.985 360.491,511.354 371.203,511.354 346.135,535.588 372.288,571.118 361.855,571.118 340.584,540.958 330.804,550.418 330.804,571.118 "/>
   <polygon id="1" class="fil0" points="377.797,571.118 377.797,511.354 385.143,511.354 385.143,571.118 "/>
   <path id="2" class="fil0" d="M396.509 519.701l0 -8.347 7.345 0 0 8.347 -7.345 0zm0 51.417l0 -43.321 7.345 0 0 43.321 -7.345 0z"/>
   <path id="3" class="fil0" d="M415.053 571.118l0 -43.321 6.594 0 0 6.121c1.349,-2.114 3.158,-3.825 5.412,-5.105 2.253,-1.294 4.813,-1.934 7.693,-1.934 3.2,0 5.829,0.668 7.874,1.99 2.045,1.335 3.492,3.185 4.326,5.578 3.451,-5.05 7.916,-7.568 13.425,-7.568 4.313,0 7.637,1.183 9.947,3.561 2.323,2.379 3.492,6.038 3.492,10.977l0 29.701 -7.346 0 0 -27.267c0,-2.921 -0.25,-5.036 -0.723,-6.33 -0.473,-1.293 -1.336,-2.323 -2.601,-3.116 -1.253,-0.793 -2.727,-1.182 -4.411,-1.182 -3.06,0 -5.592,1.015 -7.609,3.033 -2.018,2.031 -3.019,5.272 -3.019,9.724l0 25.138 -7.345 0 0 -28.116c0,-3.255 -0.599,-5.703 -1.795,-7.331 -1.196,-1.628 -3.158,-2.448 -5.871,-2.448 -2.059,0 -3.965,0.542 -5.717,1.627 -1.753,1.085 -3.019,2.671 -3.812,4.772 -0.779,2.087 -1.169,5.106 -1.169,9.043l0 22.453 -7.345 0z"/>
   <path id="4" class="fil0" d="M481.829 549.458c0,-7.999 2.226,-13.926 6.692,-17.779 3.714,-3.2 8.263,-4.8 13.619,-4.8 5.94,0 10.809,1.948 14.593,5.843 3.77,3.881 5.662,9.265 5.662,16.124 0,5.564 -0.835,9.932 -2.504,13.118 -1.669,3.186 -4.104,5.662 -7.304,7.429 -3.185,1.767 -6.677,2.643 -10.447,2.643 -6.066,0 -10.962,-1.934 -14.705,-5.815 -3.742,-3.881 -5.606,-9.474 -5.606,-16.763zm7.512 0.013c0,5.538 1.21,9.683 3.631,12.423 2.434,2.755 5.481,4.132 9.168,4.132 3.645,0 6.677,-1.377 9.112,-4.145 2.421,-2.769 3.631,-6.984 3.631,-12.646 0,-5.342 -1.224,-9.39 -3.659,-12.131 -2.434,-2.754 -5.467,-4.132 -9.084,-4.132 -3.687,0 -6.734,1.364 -9.168,4.104 -2.421,2.741 -3.631,6.872 -3.631,12.395z"/>
   <path id="5" class="fil0" d="M542.845 571.118l-16.346 -43.321 7.86 0 9.266 25.945c1.001,2.796 1.933,5.704 2.782,8.723 0.654,-2.282 1.558,-5.022 2.74,-8.236l9.627 -26.432 7.54 0 -16.401 43.321 -7.068 0z"/>
   <path id="6" class="fil0" d="M573.659 571.118l0 -59.764 22.565 0c3.965,0 6.998,0.194 9.098,0.57 2.936,0.487 5.398,1.419 7.387,2.782 1.99,1.378 3.589,3.298 4.8,5.76 1.21,2.462 1.809,5.175 1.809,8.138 0,5.064 -1.614,9.363 -4.856,12.869 -3.227,3.519 -9.084,5.272 -17.542,5.272l-15.331 0 0 24.373 -7.93 0zm7.93 -31.384l15.442 0c5.12,0 8.737,-0.946 10.893,-2.852 2.142,-1.907 3.214,-4.577 3.214,-8.041 0,-2.491 -0.627,-4.633 -1.893,-6.414 -1.266,-1.78 -2.935,-2.963 -4.994,-3.533 -1.335,-0.348 -3.798,-0.529 -7.373,-0.529l-15.289 0 0 21.369z"/>
   <path id="7" class="fil0" d="M628.332 571.118l0 -43.321 6.594 0 0 6.636c1.684,-3.075 3.242,-5.106 4.674,-6.079 1.434,-0.988 3.005,-1.475 4.716,-1.475 2.477,0 4.995,0.779 7.555,2.323l-2.616 6.775c-1.78,-1.002 -3.561,-1.502 -5.342,-1.502 -1.6,0 -3.032,0.487 -4.299,1.447 -1.265,0.96 -2.17,2.295 -2.712,4.006 -0.821,2.602 -1.224,5.454 -1.224,8.556l0 22.634 -7.346 0z"/>
   <path id="8" class="fil0" d="M653.457 549.458c0,-7.999 2.225,-13.926 6.691,-17.779 3.714,-3.2 8.263,-4.8 13.619,-4.8 5.941,0 10.81,1.948 14.594,5.843 3.77,3.881 5.662,9.265 5.662,16.124 0,5.564 -0.835,9.932 -2.504,13.118 -1.67,3.186 -4.104,5.662 -7.304,7.429 -3.186,1.767 -6.678,2.643 -10.448,2.643 -6.065,0 -10.962,-1.934 -14.704,-5.815 -3.742,-3.881 -5.606,-9.474 -5.606,-16.763zm7.512 0.013c0,5.538 1.21,9.683 3.631,12.423 2.434,2.755 5.481,4.132 9.167,4.132 3.645,0 6.678,-1.377 9.113,-4.145 2.42,-2.769 3.63,-6.984 3.63,-12.646 0,-5.342 -1.224,-9.39 -3.658,-12.131 -2.435,-2.754 -5.468,-4.132 -9.085,-4.132 -3.686,0 -6.733,1.364 -9.167,4.104 -2.421,2.741 -3.631,6.872 -3.631,12.395z"/>
   <path id="9" class="fil0" d="M702.592 519.868l0 -8.514 7.346 0 0 8.514 -7.346 0zm-9.292 68l1.349 -6.219c1.475,0.376 2.629,0.571 3.478,0.571 1.502,0 2.615,-0.501 3.353,-1.489 0.737,-0.988 1.112,-3.478 1.112,-7.443l0 -45.491 7.346 0 0 45.644c0,5.328 -0.696,9.043 -2.087,11.129 -1.767,2.713 -4.702,4.077 -8.806,4.077 -1.989,0 -3.895,-0.265 -5.745,-0.779z"/>
   <path id="10" class="fil0" d="M750.727 557.095l7.596 1.002c-1.183,4.41 -3.395,7.846 -6.623,10.28 -3.227,2.435 -7.345,3.659 -12.367,3.659 -6.316,0 -11.324,-1.948 -15.024,-5.843 -3.701,-3.881 -5.551,-9.348 -5.551,-16.374 0,-7.261 1.864,-12.91 5.606,-16.916 3.742,-4.021 8.598,-6.024 14.566,-6.024 5.773,0 10.489,1.962 14.148,5.899 3.659,3.936 5.495,9.473 5.495,16.61 0,0.431 -0.014,1.085 -0.042,1.948l-32.261 0c0.278,4.744 1.614,8.388 4.035,10.907 2.406,2.517 5.425,3.783 9.028,3.783 2.685,0 4.98,-0.709 6.872,-2.128 1.906,-1.419 3.409,-3.687 4.522,-6.803zm-24.04 -11.769l24.123 0c-0.32,-3.645 -1.252,-6.372 -2.768,-8.194 -2.323,-2.824 -5.356,-4.243 -9.071,-4.243 -3.366,0 -6.19,1.127 -8.486,3.38 -2.281,2.254 -3.547,5.273 -3.798,9.057z"/>
   <path id="11" class="fil0" d="M795.898 555.259l7.178 1.001c-0.793,4.939 -2.796,8.793 -6.038,11.589 -3.241,2.796 -7.234,4.187 -11.95,4.187 -5.912,0 -10.67,-1.934 -14.259,-5.801 -3.603,-3.867 -5.398,-9.404 -5.398,-16.61 0,-4.675 0.779,-8.751 2.324,-12.257 1.544,-3.492 3.895,-6.121 7.067,-7.86 3.158,-1.753 6.594,-2.629 10.322,-2.629 4.688,0 8.542,1.183 11.519,3.561 2.991,2.379 4.911,5.76 5.745,10.128l-7.094 1.085c-0.682,-2.907 -1.879,-5.092 -3.617,-6.566 -1.725,-1.461 -3.812,-2.198 -6.261,-2.198 -3.7,0 -6.705,1.322 -9.028,3.965 -2.31,2.657 -3.464,6.83 -3.464,12.562 0,5.815 1.113,10.03 3.338,12.659 2.24,2.63 5.148,3.951 8.723,3.951 2.894,0 5.3,-0.876 7.22,-2.643 1.934,-1.753 3.158,-4.465 3.673,-8.124z"/>
   <path id="12" class="fil0" d="M825.279 564.566l1.002 6.482c-2.059,0.432 -3.909,0.654 -5.523,0.654 -2.657,0 -4.716,-0.417 -6.191,-1.266 -1.461,-0.848 -2.49,-1.947 -3.088,-3.325 -0.598,-1.377 -0.891,-4.271 -0.891,-8.681l0 -24.957 -5.425 0 0 -5.676 5.425 0 0 -10.712 7.346 -4.41 0 15.122 7.345 0 0 5.676 -7.345 0 0 25.375c0,2.1 0.125,3.45 0.389,4.048 0.25,0.598 0.668,1.071 1.252,1.433 0.584,0.348 1.419,0.529 2.504,0.529 0.807,0 1.878,-0.098 3.2,-0.292z"/>
   <polygon class="fil1" points="877.125,573.146 877.125,581.048 843.222,581.048 843.222,573.146 "/>
  </g>
 </g>
</svg>
