<svg xmlns="http://www.w3.org/2000/svg" width="2500" height="2500" viewBox="0 0 192.756 192.756"> 
  <path fill="#6e81b6" fill-rule="evenodd" d="M96.378 138.287c45.673 0 82.698-18.764 82.698-41.909s-37.025-41.909-82.698-41.909c-45.672 0-82.698 18.764-82.698 41.909s37.026 41.909 82.698 41.909z" clip-rule="evenodd"/> 
  <path fill-rule="evenodd" d="M60.591 83.521c3.754 0 6.257.693 7.508 2.079 1.25 1.386 1.548 3.766.894 7.137-.684 3.511-2 6.017-3.95 7.519s-4.918 2.252-8.902 2.252h-6.012l3.69-18.987h6.772zm-24.079 38.208h9.882l2.345-12.061h8.465c3.735 0 6.808-.393 9.22-1.178s4.605-2.1 6.578-3.947c1.656-1.521 2.996-3.201 4.022-5.037 1.025-1.836 1.753-3.861 2.184-6.076 1.046-5.378.257-9.567-2.365-12.567-2.621-3.001-6.792-4.501-12.509-4.501H45.33l-8.818 45.367zM86.466 64.3h9.805l-2.344 12.062h8.736c5.494 0 9.287.958 11.373 2.875 2.086 1.917 2.711 5.024 1.877 9.319l-4.102 21.112h-9.961l3.9-20.074c.443-2.284.281-3.841-.49-4.672-.771-.83-2.412-1.246-4.92-1.246h-7.836l-5.051 25.992h-9.805L86.466 64.3zm51.263 19.221c3.754 0 6.256.693 7.508 2.079 1.25 1.386 1.547 3.766.893 7.137-.682 3.511-1.998 6.017-3.949 7.519-1.949 1.502-4.918 2.252-8.9 2.252h-6.012l3.689-18.987h6.771zm-24.081 38.208h9.883l2.344-12.061h8.465c3.736 0 6.809-.393 9.221-1.178s4.605-2.1 6.578-3.947c1.656-1.521 2.996-3.201 4.021-5.037s1.754-3.861 2.186-6.076c1.045-5.378.256-9.567-2.365-12.567-2.623-3.001-6.793-4.501-12.51-4.501h-19.004l-8.819 45.367z" clip-rule="evenodd"/>
</svg>
