<svg width="1451" height="1451" fill="none" xmlns="http://www.w3.org/2000/svg"><path opacity=".05" stroke="#fff" d="M1 1h161v161H1zM1 162h161v161H1zM1 323h161v161H1zM1 484h161v161H1zM1 645h161v161H1zM1 806h161v161H1zM1 967h161v161H1zM1 1128h161v161H1zM1 1289h161v161H1zM162 1h161v161H162zM162 162h161v161H162zM162 323h161v161H162zM162 484h161v161H162zM162 645h161v161H162zM162 806h161v161H162zM162 967h161v161H162zM162 1128h161v161H162zM162 1289h161v161H162zM323 1h161v161H323zM323 162h161v161H323zM323 323h161v161H323zM323 484h161v161H323zM323 645h161v161H323zM323 806h161v161H323zM323 967h161v161H323zM323 1128h161v161H323zM323 1289h161v161H323zM484 1h161v161H484zM484 162h161v161H484zM484 323h161v161H484zM484 484h161v161H484zM484 645h161v161H484zM484 806h161v161H484zM484 967h161v161H484zM484 1128h161v161H484zM484 1289h161v161H484zM645 1h161v161H645zM645 162h161v161H645zM645 323h161v161H645zM645 484h161v161H645zM645 645h161v161H645zM645 806h161v161H645zM645 967h161v161H645zM645 1128h161v161H645zM645 1289h161v161H645zM806 1h161v161H806zM806 162h161v161H806zM806 323h161v161H806zM806 484h161v161H806zM806 645h161v161H806zM806 806h161v161H806zM806 967h161v161H806zM806 1128h161v161H806zM806 1289h161v161H806zM967 1h161v161H967zM967 162h161v161H967zM967 323h161v161H967zM967 484h161v161H967zM967 645h161v161H967zM967 806h161v161H967zM967 967h161v161H967zM967 1128h161v161H967zM967 1289h161v161H967zM1128 1h161v161h-161zM1128 162h161v161h-161zM1128 323h161v161h-161zM1128 484h161v161h-161zM1128 645h161v161h-161zM1128 806h161v161h-161zM1128 967h161v161h-161zM1128 1128h161v161h-161zM1128 1289h161v161h-161zM1289 1h161v161h-161zM1289 162h161v161h-161zM1289 323h161v161h-161zM1289 484h161v161h-161zM1289 645h161v161h-161zM1289 806h161v161h-161zM1289 967h161v161h-161zM1289 1128h161v161h-161zM1289 1289h161v161h-161z"/></svg>